<svg version="1.1" id="Layer_1" xmlns="http://www.w3.org/2000/svg" xmlns:xlink="http://www.w3.org/1999/xlink" x="0px" y="0px" viewBox="0 0 100 100" style="enable-background:new 0 0 100 100;" xml:space="preserve" width="40"  height="40" >
<g fill="#0f0e0e">
	<path class="search" d="M87.5,90.8c-0.9,0-1.7-0.3-2.3-1L59.4,64.1l-1.5,1.1c-5.3,3.7-11.4,5.7-17.8,5.7c-17,0-30.9-13.8-30.9-30.9
		c0-17,13.8-30.9,30.9-30.9S71,23,71,40.1c0,6.4-2,12.6-5.7,17.9l-1.1,1.5l25.7,25.7c0.6,0.6,1,1.5,1,2.3c0,0.9-0.3,1.7-1,2.3
		C89.2,90.5,88.4,90.8,87.5,90.8 M40.1,15.8c-13.4,0-24.3,10.9-24.3,24.2s10.9,24.2,24.3,24.2s24.3-10.9,24.3-24.2
		S53.5,15.8,40.1,15.8" fill="#0f0e0e"></path>
</g>
</svg>