<svg xmlns:xlink="http://www.w3.org/1999/xlink" xmlns="http://www.w3.org/2000/svg" class=" t4s-icon-gift" viewBox="0 0 32 32" width="41"  height="44" ><path d="M 22.544 9.602 c 0.889 -0.782 1.453 -1.924 1.453 -3.198 c 0 -2.352 -1.913 -4.265 -4.265 -4.265 c -1.605 0 -3.004 0.892 -3.732 2.205 c -0.728 -1.313 -2.127 -2.205 -3.732 -2.205 c -2.352 0 -4.265 1.913 -4.265 4.265 c 0 1.274 0.564 2.416 1.453 3.198 h -6.251 v 20.259 h 25.59 v -20.259 h -6.251 Z M 27.729 10.668 v 8.53 h -11.196 v -8.53 h 0.681 l 2.588 4.53 l 0.926 -0.529 l -2.286 -4.001 h 9.287 Z M 16 8.544 l 0.604 1.058 h -1.209 l 0.604 -1.058 Z M 19.732 3.205 c 1.764 0 3.199 1.435 3.199 3.199 s -1.435 3.198 -3.199 3.198 c -1.764 0 -3.199 -1.434 -3.199 -3.198 s 1.435 -3.199 3.199 -3.199 Z M 9.069 6.404 c 0 -1.764 1.435 -3.199 3.199 -3.199 s 3.199 1.435 3.199 3.199 c 0 1.763 -1.435 3.198 -3.199 3.198 s -3.199 -1.434 -3.199 -3.198 Z M 13.558 10.668 l -2.286 4 l 0.926 0.529 l 2.588 -4.53 h 0.681 v 8.53 h -11.196 v -8.53 h 9.287 Z M 4.271 20.265 h 11.196 v 8.53 h -11.196 v -8.53 Z M 16.533 28.794 v -8.53 h 11.196 v 8.53 h -11.196 Z" fill="#fff"></path></svg>