<svg xmlns="http://www.w3.org/2000/svg" xmlns:xlink="http://www.w3.org/1999/xlink" x="0px" y="0px" viewBox="0 0 60 60" xml:space="preserve" width="40"  height="40" >
<g fill="#0f0e0e">
	<path d="M17.5,31h20c1.4,0,2.5,0.7,2.5,1.5l0,0c0,0.8-1.1,1.5-2.5,1.5h-20c-1.4,0-2.5-0.7-2.5-1.5l0,0C15,31.7,16.1,31,17.5,31z" fill="#0f0e0e"></path>
<path d="M17.5,39h28c1.4,0,2.5,0.7,2.5,1.5l0,0c0,0.8-1.1,1.5-2.5,1.5h-28c-1.4,0-2.5-0.7-2.5-1.5l0,0C15,39.7,16.1,39,17.5,39z" fill="#0f0e0e"></path>
<path d="M17.5,48h11c1.4,0,2.5,0.7,2.5,1.5l0,0c0,0.8-1.1,1.5-2.5,1.5h-11c-1.4,0-2.5-0.7-2.5-1.5l0,0C15,48.7,16.1,48,17.5,48z" fill="#0f0e0e"></path>
</g>
</svg>