<svg version="1.1" id="Layer_1" xmlns="http://www.w3.org/2000/svg" xmlns:xlink="http://www.w3.org/1999/xlink" x="0px" y="0px" viewBox="0 0 100 100" style="enable-background:new 0 0 100 100;" xml:space="preserve" width="40"  height="40" >
<g fill="#0f0e0e">

	<path d="M30.7,93c-3.8,0-6.9-3.1-6.9-6.9c0-3.8,3.1-6.9,6.9-6.9s6.9,3.1,6.9,6.9C37.6,89.9,34.5,93,30.7,93" fill="#0f0e0e"></path>
	<path d="M75.5,93c-3.8,0-6.9-3.1-6.9-6.9c0-3.8,3.1-6.9,6.9-6.9c3.8,0,6.9,3.1,6.9,6.9C82.4,89.9,79.3,93,75.5,93" fill="#0f0e0e"></path>
	<path class="st0" d="M39.8,73.4c-4.1,0-7.7-2.8-8.6-6.8L20,19.1L20,18.9c-1.5-3.2-6.2-5.7-10.4-5.7c-1.6,0-2.8-1.3-2.8-2.8
		s1.3-2.8,2.8-2.8c5.8,0,13.3,3.3,15.9,9.5c0,0.1,0.1,0.4,0.2,0.8c0.2,0.8,0.6,2,0.9,2.9c0.7,2.2,0.8,2.7,1.8,2.7h58.3
		c1.8,0,3.5,0.9,4.5,2.4c1,1.5,1.2,3.4,0.5,5.1L79.9,54.3l0,0c-0.8,2-2.8,3.3-5,3.3H35l1.8,7.7c0.3,1.4,1.6,2.4,3.1,2.4h31.3
		c1.6,0,2.8,1.3,2.8,2.8c0,1.6-1.3,2.8-2.8,2.8H39.8z M34,52h40.7l11.4-22.8H28.6L34,52z" fill="#0f0e0e"></path>
</g>
</svg>