<svg width="60" height="47" viewBox="0 0 60 47" fill="none" xmlns="http://www.w3.org/2000/svg">
<g clip-path="url(#clip0_1008_2454)">
<path d="M33.0215 46.6452C33.2593 46.6904 33.5029 46.6968 33.7428 46.6643C34.0256 46.6192 34.2993 46.5291 34.5534 46.3975C35.1731 46.092 35.7078 45.6398 36.1107 45.0805C36.5136 44.5213 36.7723 43.8721 36.864 43.1901C36.8946 42.6463 36.7985 42.1029 36.5832 41.6022C36.4483 41.2742 36.2736 40.9639 36.063 40.6781C35.6706 40.1515 35.166 39.7177 34.5853 39.4078C34.0523 39.1474 33.6279 39.0268 33.4076 38.5441C33.0885 37.8359 33.5289 36.8737 34.1002 36.3401C34.3715 36.1053 34.6879 35.9279 35.0303 35.8187C35.3727 35.7096 35.7338 35.6709 36.0917 35.705C37.6013 35.8193 39.2225 37.2008 39.6311 38.6012C39.947 39.168 40.1496 39.7902 40.2279 40.4336C40.5693 43.3965 37.9683 45.5909 37.63 45.8672L37.3555 46.28C37.3802 46.3613 37.432 46.4319 37.5023 46.4801C37.6079 46.5342 37.728 46.5538 37.8455 46.5362C37.9629 46.5185 38.0718 46.4644 38.1566 46.3816L58.0236 37.8232C58.534 37.606 58.9753 37.2547 59.3002 36.807L59.3162 36.7879C59.5658 36.4334 59.7375 36.0304 59.8201 35.6054C59.9027 35.1804 59.8943 34.7428 59.7955 34.3212C59.6968 33.8996 59.5098 33.5035 59.2468 33.1586C58.9839 32.8138 58.6508 32.5279 58.2694 32.3197C54.7587 30.3794 49.4481 27.588 45.28 25.9684C38.5523 23.3643 36.7811 23.3199 33.9885 25.5428C31.3172 27.6674 30.5608 21.0969 33.3502 20.2553C36.714 19.2233 41.0098 21.208 48.4045 24.1614C51.947 25.581 53.7247 26.2764 54.8672 26.8226C57.2034 27.9437 58.3396 28.7503 58.9491 28.2453C59.5045 27.788 59.4342 26.8735 58.7608 26.1748C55.3428 22.6244 54.0055 22.5799 52.93 19.1185C52.737 18.5136 52.64 17.8825 52.6428 17.248C52.6428 16.254 52.9842 15.1616 53.8523 12.9354C56.7247 5.51704 54.9725 2.02697 52.4098 0.585212C50.2459 -0.634247 46.0268 2.46839 44.2874 5.28521C43.7225 6.19981 42.7715 6.52373 41.6928 6.49832L33.1236 6.54596C31.5949 6.51102 31.8725 6.44116 30.1715 6.57136C28.2853 6.57136 28.4321 6.75873 26.9225 6.65393L18.3406 6.51102C17.2587 6.53643 16.3523 6.21251 15.7874 5.29791C14.0449 2.48109 9.82573 -0.634247 7.6619 0.597915C5.10871 2.03967 3.33743 5.52974 6.21935 12.9481C7.08743 15.1711 7.42254 16.2667 7.42892 17.2607C7.43163 17.8953 7.33472 18.5264 7.14169 19.1312C6.06616 22.5926 4.72892 22.6244 1.31084 26.1875C0.637435 26.8862 0.567223 27.8008 1.12254 28.2581C1.73212 28.763 2.86829 27.9405 5.20446 26.8353C6.34701 26.2891 8.12467 25.5937 11.6672 24.1741C19.0747 21.2112 23.3576 19.236 26.7215 20.268C29.5076 21.1223 28.7513 27.6801 26.0832 25.5555C23.2906 23.3326 21.5194 23.377 14.7917 25.9811C10.6236 27.5943 5.32254 30.3858 1.80233 32.3324C1.42088 32.5406 1.08782 32.8265 0.824853 33.1713C0.561886 33.5162 0.374922 33.9123 0.276151 34.3339C0.17738 34.7555 0.169021 35.1931 0.251618 35.6181C0.334216 36.0431 0.505915 36.4461 0.755521 36.8006V36.8197C1.08046 37.2674 1.52177 37.6187 2.03212 37.8359L21.8991 46.3943C21.9827 46.4737 22.0886 46.5257 22.2028 46.5433C22.3169 46.5609 22.4337 46.5433 22.5374 46.4928C22.6077 46.4446 22.6595 46.374 22.6842 46.2927L22.4098 45.8799C22.0715 45.6036 19.4704 43.4092 19.8119 40.4463C19.894 39.7961 20.1033 39.1682 20.4279 38.598C20.8364 37.1976 22.4576 35.8162 23.9672 35.7018C24.3251 35.6677 24.6862 35.7064 25.0286 35.8156C25.371 35.9248 25.6875 36.1022 25.9587 36.337C26.53 36.8705 26.964 37.8327 26.6513 38.5409C26.4374 39.0236 26.013 39.1443 25.4736 39.4047C24.893 39.7145 24.3883 40.1483 23.9959 40.6749C23.7862 40.9619 23.6125 41.2733 23.4789 41.6022C23.2636 42.1029 23.1675 42.6463 23.1981 43.1901C23.2883 43.8738 23.5463 44.5249 23.9493 45.0859C24.3523 45.647 24.8878 46.1007 25.5087 46.407C25.7628 46.5386 26.0365 46.6287 26.3193 46.6738C26.5592 46.7064 26.8028 46.6999 27.0406 46.6547" fill="#ED1C24"/>
<path d="M23.3741 29.7335C23.3747 30.1682 23.2457 30.5934 23.0034 30.9552C22.7611 31.317 22.4164 31.5992 22.0129 31.766C21.6094 31.9328 21.1653 31.9768 20.7366 31.8924C20.308 31.8079 19.9142 31.5989 19.605 31.2917C19.2958 30.9845 19.0852 30.5929 18.9997 30.1665C18.9142 29.7402 18.9578 29.2981 19.1248 28.8964C19.2919 28.4947 19.575 28.1513 19.9382 27.9096C20.3015 27.668 20.7286 27.5391 21.1655 27.5391C21.4554 27.5386 21.7425 27.5951 22.0105 27.7052C22.2784 27.8153 22.5219 27.9769 22.727 28.1807C22.9321 28.3845 23.0948 28.6265 23.2059 28.893C23.3169 29.1594 23.3741 29.445 23.3741 29.7335Z" fill="black"/>
<path d="M39.3389 29.7335C39.3395 30.1684 39.2105 30.5937 38.968 30.9556C38.7256 31.3174 38.3807 31.5996 37.977 31.7663C37.5733 31.933 37.129 31.9768 36.7003 31.8921C36.2716 31.8074 35.8778 31.5981 35.5687 31.2905C35.2597 30.983 35.0493 30.5912 34.9642 30.1646C34.879 29.738 34.923 29.2959 35.0906 28.8942C35.2582 28.4925 35.5417 28.1493 35.9054 27.9081C36.2691 27.6669 36.6965 27.5384 37.1336 27.5391C37.7185 27.5391 38.2794 27.7703 38.693 28.1818C39.1066 28.5933 39.3389 29.1515 39.3389 29.7335Z" fill="black"/>
</g>
<defs>
<clipPath id="clip0_1008_2454">
<rect width="60" height="47" fill="white"/>
</clipPath>
</defs>
</svg>
