<svg width="35" height="34" viewBox="0 0 35 34" fill="none" xmlns="http://www.w3.org/2000/svg">
<path d="M31.6958 6.8899L19.3732 0.7286C18.6906 0.387342 17.8871 0.387342 17.2046 0.7286L4.88201 6.8899C4.15391 7.25395 4.15391 8.2929 4.88201 8.65695L17.2046 14.8183C17.8871 15.1595 18.6906 15.1595 19.3732 14.8183L31.6958 8.65695C32.4238 8.2929 32.4238 7.25389 31.6958 6.8899Z" stroke="black" stroke-width="0.857924" stroke-miterlimit="10" stroke-linecap="round" stroke-linejoin="round"/>
<path d="M18.2884 9.38146C19.1768 9.38146 19.8971 8.66122 19.8971 7.77276C19.8971 6.8843 19.1768 6.16406 18.2884 6.16406C17.3999 6.16406 16.6797 6.8843 16.6797 7.77276C16.6797 8.66122 17.3999 9.38146 18.2884 9.38146Z" stroke="black" stroke-width="0.857924" stroke-miterlimit="10" stroke-linecap="round" stroke-linejoin="round"/>
<path d="M32.2415 20.8229C33.13 20.8229 33.8502 20.1026 33.8502 19.2142C33.8502 18.3257 33.13 17.6055 32.2415 17.6055C31.353 17.6055 30.6328 18.3257 30.6328 19.2142C30.6328 20.1026 31.353 20.8229 32.2415 20.8229Z" stroke="black" stroke-width="0.857924" stroke-miterlimit="10" stroke-linecap="round" stroke-linejoin="round"/>
<path d="M20.0234 7.77344H32.2388V17.5289" stroke="black" stroke-width="0.857924" stroke-miterlimit="10" stroke-linecap="round" stroke-linejoin="round"/>
<path d="M33.3031 20.4219C33.0197 20.6714 32.6489 20.824 32.2415 20.824C31.8342 20.824 31.4634 20.6714 31.1799 20.4219C30.8452 20.7167 30.6328 21.1472 30.6328 21.6284V25.3387C30.6328 26.2271 31.353 26.9473 32.2414 26.9473C33.1299 26.9473 33.8501 26.2271 33.8501 25.3387V21.6284C33.8502 21.1472 33.6379 20.7166 33.3031 20.4219Z" stroke="black" stroke-width="0.857924" stroke-miterlimit="10" stroke-linecap="round" stroke-linejoin="round"/>
<path d="M18.2895 20.4351C17.6049 20.4351 16.9276 20.4038 16.2587 20.3435L17.1651 21.9135C17.3317 22.2021 17.2328 22.571 16.9443 22.7376L16.0514 23.2532C15.834 23.3787 15.717 23.6256 15.7582 23.8732C15.7821 24.0168 15.8001 24.1623 15.815 24.3087C16.6249 24.4148 17.4507 24.4699 18.2895 24.4699C21.3609 24.4699 24.2608 23.7362 26.8237 22.4346C27.3376 22.1737 27.6637 21.6491 27.6637 21.0728V18.3789C24.813 19.6982 21.6374 20.4351 18.2895 20.4351Z" stroke="black" stroke-width="0.857924" stroke-miterlimit="10" stroke-linecap="round" stroke-linejoin="round"/>
<path d="M7.78906 24.9171L8.75548 25.8835L10.1684 24.4707" stroke="#9E9E9E" stroke-width="0.857924" stroke-miterlimit="10" stroke-linecap="round" stroke-linejoin="round"/>
<path d="M27.6626 13.9052V10.6738L19.3726 14.8188C18.6901 15.1601 17.8866 15.1601 17.204 14.8188L8.91406 10.6738V16.342H10.365C10.6982 16.342 10.9683 16.612 10.9683 16.9452V17.9756C10.9683 18.2264 11.1234 18.4516 11.3583 18.5394C12.0829 18.8102 12.7497 19.1991 13.3356 19.6828C13.5293 19.8427 13.8022 19.8651 14.0198 19.7394L14.9138 19.2232C15.2024 19.0567 15.5713 19.1555 15.7379 19.444L17.1639 21.9138C17.3304 22.2024 17.2316 22.5713 16.9431 22.7379L16.0502 23.2535C15.8327 23.379 15.7158 23.626 15.7569 23.8735C15.7809 24.0171 15.7989 24.1626 15.8138 24.309C16.6237 24.4151 17.4495 24.4702 18.2883 24.4702C21.3596 24.4702 24.2595 23.7365 26.8225 22.435C27.3363 22.174 27.6625 21.6494 27.6625 21.0731V16.2444" stroke="black" stroke-width="0.857924" stroke-miterlimit="10" stroke-linecap="round" stroke-linejoin="round"/>
<path d="M10.0831 21.3844C11.6262 21.8703 12.7453 23.3123 12.7453 25.0158C12.7453 27.1182 11.041 28.8225 8.93852 28.8225C6.8361 28.8225 5.13174 27.1182 5.13174 25.0158C5.13174 23.3308 6.2269 21.9025 7.74385 21.4013M16.9426 27.2938L16.0497 26.7782C15.8323 26.6527 15.7153 26.4057 15.7565 26.1582C15.8184 25.7866 15.8506 25.4049 15.8506 25.0158C15.8506 24.6266 15.8184 24.245 15.7565 23.8733C15.7152 23.6257 15.8323 23.3788 16.0497 23.2533L16.9426 22.7378C17.2311 22.5712 17.33 22.2022 17.1634 21.9137L15.7374 19.4439C15.5709 19.1553 15.2019 19.0565 14.9134 19.223L14.0193 19.7392C13.8017 19.8649 13.5289 19.8425 13.3351 19.6826C12.7492 19.199 12.0824 18.8101 11.3579 18.5393C11.123 18.4514 10.9678 18.2263 10.9678 17.9754V16.945C10.9678 16.6119 10.6977 16.3418 10.3646 16.3418H7.51267C7.1795 16.3418 6.90942 16.6119 6.90942 16.945V17.9754C6.90942 18.2263 6.75429 18.4514 6.51937 18.5393C5.79481 18.8101 5.128 19.199 4.54213 19.6826C4.3483 19.8425 4.07555 19.8649 3.85794 19.7392L2.96389 19.223C2.67536 19.0565 2.30637 19.1553 2.13981 19.4439L0.713759 21.9137C0.54714 22.2022 0.645988 22.5711 0.934581 22.7378L1.82749 23.2533C2.04491 23.3788 2.16187 23.6258 2.12063 23.8733C2.05874 24.245 2.02653 24.6266 2.02653 25.0158C2.02653 25.4049 2.05874 25.7866 2.12063 26.1582C2.16187 26.4058 2.04484 26.6527 1.82749 26.7782L0.934581 27.2938C0.646055 27.4603 0.547206 27.8293 0.713759 28.1178L2.13968 30.5876C2.30623 30.8762 2.67523 30.975 2.96375 30.8085L3.8578 30.2923C4.07542 30.1667 4.34817 30.189 4.54199 30.3489C5.12787 30.8325 5.79468 31.2214 6.51917 31.4923C6.75416 31.5801 6.90928 31.8052 6.90928 32.0561V33.0865C6.90928 33.4196 7.17936 33.6897 7.51253 33.6897H10.3644C10.6976 33.6897 10.9677 33.4196 10.9677 33.0865V32.0561C10.9677 31.8052 11.1228 31.5801 11.3577 31.4923C12.0822 31.2214 12.7491 30.8325 13.335 30.3489C13.5287 30.189 13.8016 30.1666 14.0192 30.2923L14.9132 30.8085C15.2017 30.975 15.5707 30.8762 15.7372 30.5876L17.1632 28.1178C17.33 27.8292 17.2311 27.4603 16.9426 27.2938Z" stroke="#9E9E9E" stroke-width="0.857924" stroke-miterlimit="10" stroke-linecap="round" stroke-linejoin="round"/>
</svg>
