<svg width="29" height="30" viewBox="0 0 29 30" fill="none" xmlns="http://www.w3.org/2000/svg">
<path d="M26.1208 0.818359C25.0661 0.818359 24.1759 1.53383 23.9086 2.50477H16.5543V1.42661C16.5543 1.09069 16.282 0.818359 15.9461 0.818359H12.5732C12.2373 0.818359 11.965 1.09069 11.965 1.42661V2.50477H4.66699C4.39974 1.53383 3.50954 0.818359 2.45482 0.818359C1.18954 0.818359 0.160156 1.84775 0.160156 3.11303C0.160156 4.37831 1.18954 5.40769 2.45482 5.40769C3.50954 5.40769 4.39974 4.69222 4.66699 3.72128H11.965V4.79944C11.965 5.13536 12.2373 5.40769 12.5732 5.40769H15.9461C16.282 5.40769 16.5543 5.13536 16.5543 4.79944V3.72128H23.9086C24.1759 4.69222 25.0661 5.40769 26.1208 5.40769C27.3861 5.40769 28.4155 4.37831 28.4155 3.11303C28.4155 1.84775 27.3861 0.818359 26.1208 0.818359ZM2.45482 4.19118C1.86034 4.19118 1.37667 3.70751 1.37667 3.11303C1.37667 2.51854 1.86034 2.03487 2.45482 2.03487C3.04931 2.03487 3.53298 2.51854 3.53298 3.11303C3.53298 3.70757 3.04931 4.19118 2.45482 4.19118ZM15.3378 4.19118H13.1815V2.03487H15.3378V4.19118ZM26.1208 4.19118C25.5263 4.19118 25.0426 3.70751 25.0426 3.11303C25.0426 2.51854 25.5263 2.03487 26.1208 2.03487C26.7153 2.03487 27.1989 2.51854 27.1989 3.11303C27.1989 3.70757 26.7153 4.19118 26.1208 4.19118Z" fill="#9E9E9E"/>
<path d="M17.6351 14.3098H16.9328L18.1791 11.8173C18.2647 11.6461 18.2647 11.4445 18.1791 11.2733L14.8063 4.52766C14.7033 4.32157 14.4927 4.19141 14.2623 4.19141C14.032 4.19141 13.8213 4.32157 13.7183 4.52766L10.3454 11.2733C10.2599 11.4446 10.2599 11.6461 10.3454 11.8174L11.5917 14.3099H10.8895C10.5536 14.3099 10.2813 14.5822 10.2813 14.9181C10.2813 15.2541 10.5536 15.5264 10.8895 15.5264H11.9677V21.72C11.9677 22.0559 12.24 22.3282 12.5759 22.3282C12.9118 22.3282 13.1842 22.0559 13.1842 21.72V15.5263H15.3405V21.7199C15.3405 22.0558 15.6128 22.3282 15.9487 22.3282C16.2847 22.3282 16.557 22.0558 16.557 21.7199V15.5263H17.6352C17.9711 15.5263 18.2434 15.254 18.2434 14.9181C18.2434 14.5822 17.971 14.3098 17.6351 14.3098ZM14.8706 14.3098V11.5453C14.8706 11.2093 14.5982 10.937 14.2623 10.937C13.9264 10.937 13.6541 11.2093 13.6541 11.5453V14.3098H12.9518L11.5695 11.5453L14.2623 6.15972L16.955 11.5453L15.5728 14.3098H14.8706Z" fill="black"/>
<path d="M26.118 22.3278H2.452C2.11608 22.3278 1.84375 22.0555 1.84375 21.7196C1.84375 21.3837 2.11608 21.1113 2.452 21.1113H26.118C26.4539 21.1113 26.7262 21.3837 26.7262 21.7196C26.7262 22.0555 26.4539 22.3278 26.118 22.3278Z" fill="#9E9E9E"/>
<path d="M24.4355 7.56445H15.9472C15.6112 7.56445 15.3389 7.83679 15.3389 8.17271C15.3389 8.50863 15.6112 8.78096 15.9472 8.78096H24.4355C25.0299 8.78096 25.5136 9.26464 25.5136 9.85912V23.4066C25.5136 24.0011 25.0299 24.4848 24.4355 24.4848H4.14232C3.54784 24.4848 3.06417 24.0011 3.06417 23.4066V9.85912C3.06417 9.26464 3.54784 8.78096 4.14232 8.78096H12.5744C12.9103 8.78096 13.1826 8.50863 13.1826 8.17271C13.1826 7.83679 12.9103 7.56445 12.5744 7.56445H4.14232C2.87704 7.56445 1.84766 8.59384 1.84766 9.85912V23.4066C1.84766 24.6719 2.87704 25.7013 4.14232 25.7013H11.9661V27.9138H9.20156C8.86564 27.9138 8.59331 28.1861 8.59331 28.522C8.59331 28.8579 8.86564 29.1303 9.20156 29.1303H19.32C19.6559 29.1303 19.9282 28.8579 19.9282 28.522C19.9282 28.1861 19.6559 27.9138 19.32 27.9138H16.5554V25.7013H24.4355C25.7007 25.7013 26.7301 24.6719 26.7301 23.4066V9.85912C26.7301 8.59379 25.7007 7.56445 24.4355 7.56445ZM15.3389 27.9138H13.1826V25.7013H15.3389V27.9138Z" fill="black"/>
</svg>
